<svg width="500" height="500" viewBox="0 0 500 500" fill="none" xmlns="http://www.w3.org/2000/svg">
<g clip-path="url(#clip0_7_2)">
<path d="M250.5 468L11.9101 70.4998L489.09 70.4998L250.5 468Z" fill="white" stroke="black" stroke-width="4.17" stroke-linejoin="round"/>
<path d="M236.5 282.375L235.25 270.5C261.667 269.375 274.875 257.5 274.875 234.875V210.25L288.75 226.125V229.125C288.75 246.042 284.438 258.938 275.812 267.812C267.229 276.646 254.125 281.5 236.5 282.375ZM258.25 238C263.583 238 267.688 236.5 270.562 233.5C273.438 230.5 274.875 226.25 274.875 220.75C274.875 215 273.417 210.688 270.5 207.812C267.583 204.938 263.208 203.5 257.375 203.5C252.375 203.5 248.521 205.125 245.812 208.375C243.104 211.583 241.75 216.125 241.75 222C241.75 227.125 243.167 231.083 246 233.875C248.875 236.625 252.958 238 258.25 238ZM252.625 249.5C244.875 249.5 238.896 247.104 234.688 242.312C230.479 237.521 228.375 230.75 228.375 222C228.375 212.5 230.896 205.125 235.938 199.875C241.021 194.625 248.208 192 257.5 192C267.5 192 275.208 194.979 280.625 200.938C286.042 206.854 288.75 215.25 288.75 226.125L278.375 218.75V235H273.75C272.5 239.625 270 243.208 266.25 245.75C262.542 248.25 258 249.5 252.625 249.5Z" fill="black"/>
</g>
<defs>
<clipPath id="clip0_7_2">
<rect width="500" height="500" fill="white"/>
</clipPath>
</defs>
</svg>
