<svg width="500" height="500" viewBox="0 0 500 500" fill="none" xmlns="http://www.w3.org/2000/svg">
<g clip-path="url(#clip0_9_5)">
<path d="M250.5 468L11.9101 70.4998L489.09 70.4998L250.5 468Z" fill="white" stroke="black" stroke-width="4.17" stroke-linejoin="round"/>
<path d="M207.75 281V192.25H221V281H207.75ZM185.625 281V269.375H209V281H185.625ZM219.75 281V269.375H240.75V281H219.75ZM186.875 212.375V199.75L207.75 192.25V205.125L186.875 212.375ZM287.5 282.25C267.333 282.25 257.25 267.25 257.25 237.25C257.25 206.417 267.333 191 287.5 191C307.667 191 317.75 206.417 317.75 237.25C317.75 267.25 307.667 282.25 287.5 282.25ZM287.5 246.625C284.708 246.625 282.438 245.771 280.688 244.062C278.979 242.312 278.125 240.042 278.125 237.25C278.125 234.417 278.979 232.146 280.688 230.438C282.438 228.729 284.708 227.875 287.5 227.875C290.333 227.875 292.604 228.729 294.312 230.438C296.021 232.146 296.875 234.417 296.875 237.25C296.875 240.042 296.021 242.312 294.312 244.062C292.604 245.771 290.333 246.625 287.5 246.625ZM287.5 270.75C298.75 270.75 304.375 259.583 304.375 237.25C304.375 214.083 298.75 202.5 287.5 202.5C276.25 202.5 270.625 214.083 270.625 237.25C270.625 259.583 276.25 270.75 287.5 270.75Z" fill="black"/>
</g>
<defs>
<clipPath id="clip0_9_5">
<rect width="500" height="500" fill="white"/>
</clipPath>
</defs>
</svg>
