<svg width="500" height="500" viewBox="0 0 500 500" fill="none" xmlns="http://www.w3.org/2000/svg">
<g clip-path="url(#clip0_2_67)">
<rect width="500" height="500" />
<path d="M250.5 468L11.9101 70.4998L489.09 70.4998L250.5 468Z" stroke="black" stroke-width="4.17" stroke-linejoin="round" fill="white"/>
<path d="M258.5 283.25C248.875 283.25 241.417 281.021 236.125 276.562C230.875 272.062 228.25 265.75 228.25 257.625C228.25 250.167 230.875 244.417 236.125 240.375C241.417 236.292 248.875 234.25 258.5 234.25C268.125 234.25 275.562 236.292 280.812 240.375C286.104 244.417 288.75 250.167 288.75 257.625C288.75 265.75 286.104 272.062 280.812 276.562C275.562 281.021 268.125 283.25 258.5 283.25ZM258.5 271.75C263.875 271.75 268.021 270.458 270.938 267.875C273.896 265.292 275.375 261.667 275.375 257C275.375 252 273.896 248.104 270.938 245.312C268.021 242.521 263.875 241.125 258.5 241.125C253.125 241.125 248.958 242.521 246 245.312C243.083 248.104 241.625 252 241.625 257C241.625 261.667 243.083 265.292 246 267.875C248.958 270.458 253.125 271.75 258.5 271.75ZM248.125 237.875V231.5H269V237.875H248.125ZM258.5 229.125C263.083 229.125 266.625 228.062 269.125 225.938C271.625 223.771 272.875 220.792 272.875 217C272.875 212.667 271.625 209.333 269.125 207C266.625 204.667 263.083 203.5 258.5 203.5C253.958 203.5 250.417 204.667 247.875 207C245.375 209.333 244.125 212.667 244.125 217C244.125 220.792 245.375 223.771 247.875 225.938C250.417 228.062 253.958 229.125 258.5 229.125ZM258.5 235.375C249.708 235.375 242.875 233.562 238 229.938C233.167 226.271 230.75 221.125 230.75 214.5C230.75 207.375 233.167 201.854 238 197.938C242.875 193.979 249.708 192 258.5 192C267.333 192 274.167 193.979 279 197.938C283.833 201.854 286.25 207.375 286.25 214.5C286.25 221.125 283.833 226.271 279 229.938C274.167 233.562 267.333 235.375 258.5 235.375Z" fill="black"/>
</g>
<defs>
<clipPath id="clip0_2_67">
<rect width="500" height="500" />
</clipPath>
</defs>
</svg>
