<svg width="500" height="500" viewBox="0 0 500 500" fill="none" xmlns="http://www.w3.org/2000/svg">
<g clip-path="url(#clip0_9_29)">
<path d="M250.5 468L11.9101 70.4998L489.09 70.4998L250.5 468Z" fill="white" stroke="black" stroke-width="4.17" stroke-linejoin="round"/>
<path d="M207.75 282V193.25H221V282H207.75ZM185.625 282V270.375H209V282H185.625ZM219.75 282V270.375H240.75V282H219.75ZM186.875 213.375V200.75L207.75 193.25V206.125L186.875 213.375ZM287.5 283.25C277.875 283.25 270.417 281.021 265.125 276.562C259.875 272.062 257.25 265.75 257.25 257.625C257.25 250.167 259.875 244.417 265.125 240.375C270.417 236.292 277.875 234.25 287.5 234.25C297.125 234.25 304.562 236.292 309.812 240.375C315.104 244.417 317.75 250.167 317.75 257.625C317.75 265.75 315.104 272.062 309.812 276.562C304.562 281.021 297.125 283.25 287.5 283.25ZM287.5 271.75C292.875 271.75 297.021 270.458 299.938 267.875C302.896 265.292 304.375 261.667 304.375 257C304.375 252 302.896 248.104 299.938 245.312C297.021 242.521 292.875 241.125 287.5 241.125C282.125 241.125 277.958 242.521 275 245.312C272.083 248.104 270.625 252 270.625 257C270.625 261.667 272.083 265.292 275 267.875C277.958 270.458 282.125 271.75 287.5 271.75ZM277.125 237.875V231.5H298V237.875H277.125ZM287.5 229.125C292.083 229.125 295.625 228.062 298.125 225.938C300.625 223.771 301.875 220.792 301.875 217C301.875 212.667 300.625 209.333 298.125 207C295.625 204.667 292.083 203.5 287.5 203.5C282.958 203.5 279.417 204.667 276.875 207C274.375 209.333 273.125 212.667 273.125 217C273.125 220.792 274.375 223.771 276.875 225.938C279.417 228.062 282.958 229.125 287.5 229.125ZM287.5 235.375C278.708 235.375 271.875 233.562 267 229.938C262.167 226.271 259.75 221.125 259.75 214.5C259.75 207.375 262.167 201.854 267 197.938C271.875 193.979 278.708 192 287.5 192C296.333 192 303.167 193.979 308 197.938C312.833 201.854 315.25 207.375 315.25 214.5C315.25 221.125 312.833 226.271 308 229.938C303.167 233.562 296.333 235.375 287.5 235.375Z" fill="black"/>
</g>
<defs>
<clipPath id="clip0_9_29">
<rect width="500" height="500" fill="white"/>
</clipPath>
</defs>
</svg>
