<svg width="500" height="500" viewBox="0 0 500 500" fill="none" xmlns="http://www.w3.org/2000/svg">
<g clip-path="url(#clip0_2_92)">
<rect width="500" height="500" />
<path d="M250 33L487.764 199.181L396.946 468.069L103.054 468.069L12.2359 199.181L250 33Z" stroke="black" stroke-width="4.17" stroke-linejoin="round" fill="white"/>
<path d="M258.5 304.25C248.875 304.25 241.417 302.021 236.125 297.562C230.875 293.062 228.25 286.75 228.25 278.625C228.25 271.167 230.875 265.417 236.125 261.375C241.417 257.292 248.875 255.25 258.5 255.25C268.125 255.25 275.562 257.292 280.812 261.375C286.104 265.417 288.75 271.167 288.75 278.625C288.75 286.75 286.104 293.062 280.812 297.562C275.562 302.021 268.125 304.25 258.5 304.25ZM258.5 292.75C263.875 292.75 268.021 291.458 270.938 288.875C273.896 286.292 275.375 282.667 275.375 278C275.375 273 273.896 269.104 270.938 266.312C268.021 263.521 263.875 262.125 258.5 262.125C253.125 262.125 248.958 263.521 246 266.312C243.083 269.104 241.625 273 241.625 278C241.625 282.667 243.083 286.292 246 288.875C248.958 291.458 253.125 292.75 258.5 292.75ZM248.125 258.875V252.5H269V258.875H248.125ZM258.5 250.125C263.083 250.125 266.625 249.062 269.125 246.938C271.625 244.771 272.875 241.792 272.875 238C272.875 233.667 271.625 230.333 269.125 228C266.625 225.667 263.083 224.5 258.5 224.5C253.958 224.5 250.417 225.667 247.875 228C245.375 230.333 244.125 233.667 244.125 238C244.125 241.792 245.375 244.771 247.875 246.938C250.417 249.062 253.958 250.125 258.5 250.125ZM258.5 256.375C249.708 256.375 242.875 254.562 238 250.938C233.167 247.271 230.75 242.125 230.75 235.5C230.75 228.375 233.167 222.854 238 218.938C242.875 214.979 249.708 213 258.5 213C267.333 213 274.167 214.979 279 218.938C283.833 222.854 286.25 228.375 286.25 235.5C286.25 242.125 283.833 247.271 279 250.938C274.167 254.562 267.333 256.375 258.5 256.375Z" fill="black"/>
</g>
<defs>
<clipPath id="clip0_2_92">
<rect width="500" height="500" />
</clipPath>
</defs>
</svg>
