<svg width="500" height="500" viewBox="0 0 500 500" fill="none" xmlns="http://www.w3.org/2000/svg">
<g clip-path="url(#clip0_2_104)">
<rect width="500" height="500" />
<path d="M250 33L487.764 199.181L396.946 468.069L103.054 468.069L12.2359 199.181L250 33Z" stroke="black" stroke-width="4.17" stroke-linejoin="round" fill="white"/>
<path d="M207.75 305V216.25H221V305H207.75ZM185.625 305V293.375H209V305H185.625ZM219.75 305V293.375H240.75V305H219.75ZM186.875 236.375V223.75L207.75 216.25V229.125L186.875 236.375ZM260.75 305V291C274.458 283.417 284.688 275.5 291.438 267.25C298.229 259 301.625 250.5 301.625 241.75C301.625 236.667 300.375 232.854 297.875 230.312C295.375 227.771 291.583 226.5 286.5 226.5C283.125 226.5 279.604 227.479 275.938 229.438C272.271 231.396 269.125 234 266.5 237.25L257.875 228.688C260.75 224.562 264.833 221.25 270.125 218.75C275.417 216.25 280.958 215 286.75 215C296.125 215 303.125 217.229 307.75 221.688C312.417 226.104 314.75 232.792 314.75 241.75C314.75 250.75 311.896 259.396 306.188 267.688C300.521 275.938 291.875 283.875 280.25 291.5V305H260.75ZM264.5 305V293.375H318.5V305H264.5Z" fill="black"/>
</g>
<defs>
<clipPath id="clip0_2_104">
<rect width="500" height="500" />
</clipPath>
</defs>
</svg>
