<svg width="500" height="500" viewBox="0 0 500 500" fill="none" xmlns="http://www.w3.org/2000/svg">
<g clip-path="url(#clip0_2_95)">
<rect width="500" height="500" />
<path d="M250 33L487.764 199.181L396.946 468.069L103.054 468.069L12.2359 199.181L250 33Z" stroke="black" stroke-width="4.17" stroke-linejoin="round" fill="white"/>
<path d="M236.5 303.375L235.25 291.5C261.667 290.375 274.875 278.5 274.875 255.875V231.25L288.75 247.125V250.125C288.75 267.042 284.438 279.938 275.812 288.812C267.229 297.646 254.125 302.5 236.5 303.375ZM258.25 259C263.583 259 267.688 257.5 270.562 254.5C273.438 251.5 274.875 247.25 274.875 241.75C274.875 236 273.417 231.688 270.5 228.812C267.583 225.938 263.208 224.5 257.375 224.5C252.375 224.5 248.521 226.125 245.812 229.375C243.104 232.583 241.75 237.125 241.75 243C241.75 248.125 243.167 252.083 246 254.875C248.875 257.625 252.958 259 258.25 259ZM252.625 270.5C244.875 270.5 238.896 268.104 234.688 263.312C230.479 258.521 228.375 251.75 228.375 243C228.375 233.5 230.896 226.125 235.938 220.875C241.021 215.625 248.208 213 257.5 213C267.5 213 275.208 215.979 280.625 221.938C286.042 227.854 288.75 236.25 288.75 247.125L278.375 239.75V256H273.75C272.5 260.625 270 264.208 266.25 266.75C262.542 269.25 258 270.5 252.625 270.5Z" fill="black"/>
</g>
<defs>
<clipPath id="clip0_2_95">
<rect width="500" height="500" />
</clipPath>
</defs>
</svg>
