<svg width="500" height="500" viewBox="0 0 500 500" fill="none" xmlns="http://www.w3.org/2000/svg">
<g clip-path="url(#clip0_2_6)">
<rect width="500" height="500" />
<path d="M250.5 48L489.09 445.5H11.91L250.5 48Z" stroke="black" stroke-width="4.17" stroke-linejoin="round" fill="white"/>
<path d="M252.125 323.25C247.542 323.25 243.333 322.979 239.5 322.438C235.708 321.896 232.333 321.167 229.375 320.25L230.938 308.312C233.479 309.021 236.333 309.771 239.5 310.562C242.708 311.354 246.75 311.75 251.625 311.75C258.042 311.75 263.021 310.458 266.562 307.875C270.104 305.292 271.875 301.667 271.875 297C271.875 293.667 270.854 290.833 268.812 288.5C266.771 286.167 263.792 284.396 259.875 283.188C256 281.979 251.292 281.375 245.75 281.375H243.75L242.25 273.25L261.375 274.75C268.458 275.292 274.208 277.604 278.625 281.688C283.042 285.729 285.25 291.25 285.25 298.25C285.25 306.167 282.354 312.312 276.562 316.688C270.812 321.062 262.667 323.25 252.125 323.25ZM243.75 281.375L242.25 273.25C248.75 272.375 254.042 271.083 258.125 269.375C262.208 267.667 265.208 265.604 267.125 263.188C269.042 260.729 270 258 270 255C270 251.375 268.833 248.562 266.5 246.562C264.208 244.521 260.917 243.5 256.625 243.5C253.458 243.5 250.083 244.292 246.5 245.875C242.958 247.458 239.604 249.833 236.438 253L227.812 244.438C231.646 240.104 236.083 236.958 241.125 235C246.167 233 251.792 232 258 232C266.083 232 272.333 233.729 276.75 237.188C281.167 240.604 283.375 245.5 283.375 251.875C283.375 257.208 281.667 261.854 278.25 265.812C274.833 269.729 270.375 272.417 264.875 273.875V281.375H243.75Z" fill="black"/>
</g>
<defs>
<clipPath id="clip0_2_6">
<rect width="500" height="500" />
</clipPath>
</defs>
</svg>
