<svg width="500" height="500" viewBox="0 0 500 500" fill="none" xmlns="http://www.w3.org/2000/svg">
<g clip-path="url(#clip0_2_74)">
<rect width="500" height="500" />
<path d="M250 33L487.764 199.181L396.946 468.069L103.054 468.069L12.2359 199.181L250 33Z" stroke="black" stroke-width="4.17" stroke-linejoin="round" fill="white"/>
<path d="M231.75 303V289C245.458 281.417 255.688 273.5 262.438 265.25C269.229 257 272.625 248.5 272.625 239.75C272.625 234.667 271.375 230.854 268.875 228.312C266.375 225.771 262.583 224.5 257.5 224.5C254.125 224.5 250.604 225.479 246.938 227.438C243.271 229.396 240.125 232 237.5 235.25L228.875 226.688C231.75 222.562 235.833 219.25 241.125 216.75C246.417 214.25 251.958 213 257.75 213C267.125 213 274.125 215.229 278.75 219.688C283.417 224.104 285.75 230.792 285.75 239.75C285.75 248.75 282.896 257.396 277.188 265.688C271.521 273.938 262.875 281.875 251.25 289.5V303H231.75ZM235.5 303V291.375H289.5V303H235.5Z" fill="black"/>
</g>
<defs>
<clipPath id="clip0_2_74">
<rect width="500" height="500" />
</clipPath>
</defs>
</svg>
