<svg width="500" height="500" viewBox="0 0 500 500" fill="none" xmlns="http://www.w3.org/2000/svg">
<g clip-path="url(#clip0_9_23)">
<path d="M250.5 468L11.9101 70.4998L489.09 70.4998L250.5 468Z" fill="white" stroke="black" stroke-width="4.17" stroke-linejoin="round"/>
<path d="M207.75 282V193.25H221V282H207.75ZM185.625 282V270.375H209V282H185.625ZM219.75 282V270.375H240.75V282H219.75ZM186.875 213.375V200.75L207.75 193.25V206.125L186.875 213.375ZM268.312 261.688L257.375 249.125V243.625C257.375 227.458 261.667 215.167 270.25 206.75C278.875 198.333 292 193.708 309.625 192.875L310.875 204.75C284.458 205.875 271.25 217.75 271.25 240.375L268.312 261.688ZM288.625 283.25C278.625 283.25 270.917 280.292 265.5 274.375C260.083 268.417 257.375 260 257.375 249.125L267.75 256.5V240.25H272.375C273.625 235.625 276.104 232.062 279.812 229.562C283.562 227.021 288.125 225.75 293.5 225.75C301.25 225.75 307.229 228.146 311.438 232.938C315.646 237.729 317.75 244.5 317.75 253.25C317.75 262.75 315.229 270.125 310.188 275.375C305.146 280.625 297.958 283.25 288.625 283.25ZM288.75 271.75C293.625 271.75 297.375 270.146 300 266.938C302.667 263.688 304 259.125 304 253.25C304 248.125 302.604 244.188 299.812 241.438C297.062 238.646 293.083 237.25 287.875 237.25C282.542 237.25 278.417 238.75 275.5 241.75C272.583 244.75 271.125 249 271.125 254.5C271.125 260.25 272.604 264.562 275.562 267.438C278.521 270.312 282.917 271.75 288.75 271.75Z" fill="black"/>
</g>
<defs>
<clipPath id="clip0_9_23">
<rect width="500" height="500" fill="white"/>
</clipPath>
</defs>
</svg>
