<svg width="500" height="500" viewBox="0 0 500 500" fill="none" xmlns="http://www.w3.org/2000/svg">
<g clip-path="url(#clip0_2_58)">
<rect width="500" height="500" />
<path d="M250.5 468L11.9101 70.4998L489.09 70.4998L250.5 468Z" stroke="black" stroke-width="4.17" stroke-linejoin="round" fill="white"/>
<path d="M259.375 283.25C249.792 283.25 242.375 280.979 237.125 276.438C231.875 271.854 229.25 265.417 229.25 257.125H242.625C242.625 261.75 244.083 265.354 247 267.938C249.917 270.479 254.083 271.75 259.5 271.75C264.75 271.75 268.812 270.146 271.688 266.938C274.562 263.729 276 259.208 276 253.375C276 247.667 274.417 243.25 271.25 240.125C268.125 236.958 263.708 235.375 258 235.375C252.167 235.375 246.708 236.75 241.625 239.5L242.75 228.875C246.042 227 249.312 225.75 252.562 225.125C255.812 224.458 259.083 224.125 262.375 224.125C268.125 224.125 273 225.271 277 227.562C281.042 229.854 284.104 233.188 286.188 237.562C288.312 241.896 289.375 247.167 289.375 253.375C289.375 259.708 288.188 265.104 285.812 269.562C283.479 274.021 280.083 277.417 275.625 279.75C271.167 282.083 265.75 283.25 259.375 283.25ZM234.625 239.5L235.875 193.25H249L246.875 231.75L241.625 239.5H234.625ZM241.875 204.875L240.75 193.25H283.75V204.875H241.875Z" fill="black"/>
</g>
<defs>
<clipPath id="clip0_2_58">
<rect width="500" height="500" />
</clipPath>
</defs>
</svg>
