<svg width="500" height="500" viewBox="0 0 500 500" fill="none" xmlns="http://www.w3.org/2000/svg">
<g clip-path="url(#clip0_9_35)">
<path d="M250.5 468L11.9101 70.4998L489.09 70.4998L250.5 468Z" fill="white" stroke="black" stroke-width="4.17" stroke-linejoin="round"/>
<path d="M185.75 282V268C199.458 260.417 209.688 252.5 216.438 244.25C223.229 236 226.625 227.5 226.625 218.75C226.625 213.667 225.375 209.854 222.875 207.312C220.375 204.771 216.583 203.5 211.5 203.5C208.125 203.5 204.604 204.479 200.938 206.438C197.271 208.396 194.125 211 191.5 214.25L182.875 205.688C185.75 201.562 189.833 198.25 195.125 195.75C200.417 193.25 205.958 192 211.75 192C221.125 192 228.125 194.229 232.75 198.688C237.417 203.104 239.75 209.792 239.75 218.75C239.75 227.75 236.896 236.396 231.188 244.688C225.521 252.938 216.875 260.875 205.25 268.5V282H185.75ZM189.5 282V270.375H243.5V282H189.5ZM287.5 283.25C267.333 283.25 257.25 268.25 257.25 238.25C257.25 207.417 267.333 192 287.5 192C307.667 192 317.75 207.417 317.75 238.25C317.75 268.25 307.667 283.25 287.5 283.25ZM287.5 247.625C284.708 247.625 282.438 246.771 280.688 245.062C278.979 243.312 278.125 241.042 278.125 238.25C278.125 235.417 278.979 233.146 280.688 231.438C282.438 229.729 284.708 228.875 287.5 228.875C290.333 228.875 292.604 229.729 294.312 231.438C296.021 233.146 296.875 235.417 296.875 238.25C296.875 241.042 296.021 243.312 294.312 245.062C292.604 246.771 290.333 247.625 287.5 247.625ZM287.5 271.75C298.75 271.75 304.375 260.583 304.375 238.25C304.375 215.083 298.75 203.5 287.5 203.5C276.25 203.5 270.625 215.083 270.625 238.25C270.625 260.583 276.25 271.75 287.5 271.75Z" fill="black"/>
</g>
<defs>
<clipPath id="clip0_9_35">
<rect width="500" height="500" fill="white"/>
</clipPath>
</defs>
</svg>
