<svg width="500" height="500" viewBox="0 0 500 500" fill="none" xmlns="http://www.w3.org/2000/svg">
<g clip-path="url(#clip0_2_77)">
<rect width="500" height="500" />
<path d="M250 33L487.764 199.181L396.946 468.069L103.054 468.069L12.2359 199.181L250 33Z" stroke="black" stroke-width="4.17" stroke-linejoin="round" fill="white"/>
<path d="M253.125 304.25C248.542 304.25 244.333 303.979 240.5 303.438C236.708 302.896 233.333 302.167 230.375 301.25L231.938 289.312C234.479 290.021 237.333 290.771 240.5 291.562C243.708 292.354 247.75 292.75 252.625 292.75C259.042 292.75 264.021 291.458 267.562 288.875C271.104 286.292 272.875 282.667 272.875 278C272.875 274.667 271.854 271.833 269.812 269.5C267.771 267.167 264.792 265.396 260.875 264.188C257 262.979 252.292 262.375 246.75 262.375H244.75L243.25 254.25L262.375 255.75C269.458 256.292 275.208 258.604 279.625 262.688C284.042 266.729 286.25 272.25 286.25 279.25C286.25 287.167 283.354 293.312 277.562 297.688C271.812 302.062 263.667 304.25 253.125 304.25ZM244.75 262.375L243.25 254.25C249.75 253.375 255.042 252.083 259.125 250.375C263.208 248.667 266.208 246.604 268.125 244.188C270.042 241.729 271 239 271 236C271 232.375 269.833 229.562 267.5 227.562C265.208 225.521 261.917 224.5 257.625 224.5C254.458 224.5 251.083 225.292 247.5 226.875C243.958 228.458 240.604 230.833 237.438 234L228.812 225.438C232.646 221.104 237.083 217.958 242.125 216C247.167 214 252.792 213 259 213C267.083 213 273.333 214.729 277.75 218.188C282.167 221.604 284.375 226.5 284.375 232.875C284.375 238.208 282.667 242.854 279.25 246.812C275.833 250.729 271.375 253.417 265.875 254.875V262.375H244.75Z" fill="black"/>
</g>
<defs>
<clipPath id="clip0_2_77">
<rect width="500" height="500" />
</clipPath>
</defs>
</svg>
