<svg width="500" height="500" viewBox="0 0 500 500" fill="none" xmlns="http://www.w3.org/2000/svg">
<g clip-path="url(#clip0_2_52)">
<rect width="500" height="500" />
<path d="M250.5 468L11.9101 70.4998L489.09 70.4998L250.5 468Z" stroke="black" stroke-width="4.17" stroke-linejoin="round" fill="white"/>
<path d="M253.125 283.25C248.542 283.25 244.333 282.979 240.5 282.438C236.708 281.896 233.333 281.167 230.375 280.25L231.938 268.312C234.479 269.021 237.333 269.771 240.5 270.562C243.708 271.354 247.75 271.75 252.625 271.75C259.042 271.75 264.021 270.458 267.562 267.875C271.104 265.292 272.875 261.667 272.875 257C272.875 253.667 271.854 250.833 269.812 248.5C267.771 246.167 264.792 244.396 260.875 243.188C257 241.979 252.292 241.375 246.75 241.375H244.75L243.25 233.25L262.375 234.75C269.458 235.292 275.208 237.604 279.625 241.688C284.042 245.729 286.25 251.25 286.25 258.25C286.25 266.167 283.354 272.312 277.562 276.688C271.812 281.062 263.667 283.25 253.125 283.25ZM244.75 241.375L243.25 233.25C249.75 232.375 255.042 231.083 259.125 229.375C263.208 227.667 266.208 225.604 268.125 223.188C270.042 220.729 271 218 271 215C271 211.375 269.833 208.562 267.5 206.562C265.208 204.521 261.917 203.5 257.625 203.5C254.458 203.5 251.083 204.292 247.5 205.875C243.958 207.458 240.604 209.833 237.438 213L228.812 204.438C232.646 200.104 237.083 196.958 242.125 195C247.167 193 252.792 192 259 192C267.083 192 273.333 193.729 277.75 197.188C282.167 200.604 284.375 205.5 284.375 211.875C284.375 217.208 282.667 221.854 279.25 225.812C275.833 229.729 271.375 232.417 265.875 233.875V241.375H244.75Z" fill="black"/>
</g>
<defs>
<clipPath id="clip0_2_52">
<rect width="500" height="500" />
</clipPath>
</defs>
</svg>
