<svg width="500" height="500" viewBox="0 0 500 500" fill="none" xmlns="http://www.w3.org/2000/svg">
<g clip-path="url(#clip0_2_49)">
<rect width="500" height="500" />
<path d="M250.5 468L11.9101 70.4998L489.09 70.4998L250.5 468Z" stroke="black" stroke-width="4.17" stroke-linejoin="round" fill="white"/>
<path d="M231.75 282V268C245.458 260.417 255.688 252.5 262.438 244.25C269.229 236 272.625 227.5 272.625 218.75C272.625 213.667 271.375 209.854 268.875 207.312C266.375 204.771 262.583 203.5 257.5 203.5C254.125 203.5 250.604 204.479 246.938 206.438C243.271 208.396 240.125 211 237.5 214.25L228.875 205.688C231.75 201.562 235.833 198.25 241.125 195.75C246.417 193.25 251.958 192 257.75 192C267.125 192 274.125 194.229 278.75 198.688C283.417 203.104 285.75 209.792 285.75 218.75C285.75 227.75 282.896 236.396 277.188 244.688C271.521 252.938 262.875 260.875 251.25 268.5V282H231.75ZM235.5 282V270.375H289.5V282H235.5Z" fill="black"/>
</g>
<defs>
<clipPath id="clip0_2_49">
<rect width="500" height="500" />
</clipPath>
</defs>
</svg>
