<svg width="500" height="500" viewBox="0 0 500 500" fill="none" xmlns="http://www.w3.org/2000/svg">
<g clip-path="url(#clip0_2_61)">
<rect width="500" height="500" />
<path d="M250.5 468L11.9101 70.4998L489.09 70.4998L250.5 468Z" stroke="black" stroke-width="4.17" stroke-linejoin="round" fill="white"/>
<path d="M239.312 261.688L228.375 249.125V243.625C228.375 227.458 232.667 215.167 241.25 206.75C249.875 198.333 263 193.708 280.625 192.875L281.875 204.75C255.458 205.875 242.25 217.75 242.25 240.375L239.312 261.688ZM259.625 283.25C249.625 283.25 241.917 280.292 236.5 274.375C231.083 268.417 228.375 260 228.375 249.125L238.75 256.5V240.25H243.375C244.625 235.625 247.104 232.062 250.812 229.562C254.562 227.021 259.125 225.75 264.5 225.75C272.25 225.75 278.229 228.146 282.438 232.938C286.646 237.729 288.75 244.5 288.75 253.25C288.75 262.75 286.229 270.125 281.188 275.375C276.146 280.625 268.958 283.25 259.625 283.25ZM259.75 271.75C264.625 271.75 268.375 270.146 271 266.938C273.667 263.688 275 259.125 275 253.25C275 248.125 273.604 244.188 270.812 241.438C268.062 238.646 264.083 237.25 258.875 237.25C253.542 237.25 249.417 238.75 246.5 241.75C243.583 244.75 242.125 249 242.125 254.5C242.125 260.25 243.604 264.562 246.562 267.438C249.521 270.312 253.917 271.75 259.75 271.75Z" fill="black"/>
</g>
<defs>
<clipPath id="clip0_2_61">
<rect width="500" height="500" />
</clipPath>
</defs>
</svg>
