<svg width="500" height="500" viewBox="0 0 500 500" fill="none" xmlns="http://www.w3.org/2000/svg">
<g clip-path="url(#clip0_9_20)">
<path d="M250.5 468L11.9101 70.4998L489.09 70.4998L250.5 468Z" fill="white" stroke="black" stroke-width="4.17" stroke-linejoin="round"/>
<path d="M207.75 282V193.25H221V282H207.75ZM185.625 282V270.375H209V282H185.625ZM219.75 282V270.375H240.75V282H219.75ZM186.875 213.375V200.75L207.75 193.25V206.125L186.875 213.375ZM288.375 283.25C278.792 283.25 271.375 280.979 266.125 276.438C260.875 271.854 258.25 265.417 258.25 257.125H271.625C271.625 261.75 273.083 265.354 276 267.938C278.917 270.479 283.083 271.75 288.5 271.75C293.75 271.75 297.812 270.146 300.688 266.938C303.562 263.729 305 259.208 305 253.375C305 247.667 303.417 243.25 300.25 240.125C297.125 236.958 292.708 235.375 287 235.375C281.167 235.375 275.708 236.75 270.625 239.5L271.75 228.875C275.042 227 278.312 225.75 281.562 225.125C284.812 224.458 288.083 224.125 291.375 224.125C297.125 224.125 302 225.271 306 227.562C310.042 229.854 313.104 233.188 315.188 237.562C317.312 241.896 318.375 247.167 318.375 253.375C318.375 259.708 317.188 265.104 314.812 269.562C312.479 274.021 309.083 277.417 304.625 279.75C300.167 282.083 294.75 283.25 288.375 283.25ZM263.625 239.5L264.875 193.25H278L275.875 231.75L270.625 239.5H263.625ZM270.875 204.875L269.75 193.25H312.75V204.875H270.875Z" fill="black"/>
</g>
<defs>
<clipPath id="clip0_9_20">
<rect width="500" height="500" fill="white"/>
</clipPath>
</defs>
</svg>
