<svg width="500" height="500" viewBox="0 0 500 500" fill="none" xmlns="http://www.w3.org/2000/svg">
<g clip-path="url(#clip0_9_32)">
<path d="M250.5 468L11.9101 70.4998L489.09 70.4998L250.5 468Z" fill="white" stroke="black" stroke-width="4.17" stroke-linejoin="round"/>
<path d="M207.75 282V193.25H221V282H207.75ZM185.625 282V270.375H209V282H185.625ZM219.75 282V270.375H240.75V282H219.75ZM186.875 213.375V200.75L207.75 193.25V206.125L186.875 213.375ZM265.5 282.375L264.25 270.5C290.667 269.375 303.875 257.5 303.875 234.875V210.25L317.75 226.125V229.125C317.75 246.042 313.438 258.938 304.812 267.812C296.229 276.646 283.125 281.5 265.5 282.375ZM287.25 238C292.583 238 296.688 236.5 299.562 233.5C302.438 230.5 303.875 226.25 303.875 220.75C303.875 215 302.417 210.688 299.5 207.812C296.583 204.938 292.208 203.5 286.375 203.5C281.375 203.5 277.521 205.125 274.812 208.375C272.104 211.583 270.75 216.125 270.75 222C270.75 227.125 272.167 231.083 275 233.875C277.875 236.625 281.958 238 287.25 238ZM281.625 249.5C273.875 249.5 267.896 247.104 263.688 242.312C259.479 237.521 257.375 230.75 257.375 222C257.375 212.5 259.896 205.125 264.938 199.875C270.021 194.625 277.208 192 286.5 192C296.5 192 304.208 194.979 309.625 200.938C315.042 206.854 317.75 215.25 317.75 226.125L307.375 218.75V235H302.75C301.5 239.625 299 243.208 295.25 245.75C291.542 248.25 287 249.5 281.625 249.5Z" fill="black"/>
</g>
<defs>
<clipPath id="clip0_9_32">
<rect width="500" height="500" fill="white"/>
</clipPath>
</defs>
</svg>
