<svg width="500" height="500" viewBox="0 0 500 500" fill="none" xmlns="http://www.w3.org/2000/svg">
<g clip-path="url(#clip0_9_14)">
<path d="M250.5 468L11.9101 70.4998L489.09 70.4998L250.5 468Z" fill="white" stroke="black" stroke-width="4.17" stroke-linejoin="round"/>
<path d="M207.75 282V193.25H221V282H207.75ZM185.625 282V270.375H209V282H185.625ZM219.75 282V270.375H240.75V282H219.75ZM186.875 213.375V200.75L207.75 193.25V206.125L186.875 213.375ZM282.125 283.25C277.542 283.25 273.333 282.979 269.5 282.438C265.708 281.896 262.333 281.167 259.375 280.25L260.938 268.312C263.479 269.021 266.333 269.771 269.5 270.562C272.708 271.354 276.75 271.75 281.625 271.75C288.042 271.75 293.021 270.458 296.562 267.875C300.104 265.292 301.875 261.667 301.875 257C301.875 253.667 300.854 250.833 298.812 248.5C296.771 246.167 293.792 244.396 289.875 243.188C286 241.979 281.292 241.375 275.75 241.375H273.75L272.25 233.25L291.375 234.75C298.458 235.292 304.208 237.604 308.625 241.688C313.042 245.729 315.25 251.25 315.25 258.25C315.25 266.167 312.354 272.312 306.562 276.688C300.812 281.062 292.667 283.25 282.125 283.25ZM273.75 241.375L272.25 233.25C278.75 232.375 284.042 231.083 288.125 229.375C292.208 227.667 295.208 225.604 297.125 223.188C299.042 220.729 300 218 300 215C300 211.375 298.833 208.562 296.5 206.562C294.208 204.521 290.917 203.5 286.625 203.5C283.458 203.5 280.083 204.292 276.5 205.875C272.958 207.458 269.604 209.833 266.438 213L257.812 204.438C261.646 200.104 266.083 196.958 271.125 195C276.167 193 281.792 192 288 192C296.083 192 302.333 193.729 306.75 197.188C311.167 200.604 313.375 205.5 313.375 211.875C313.375 217.208 311.667 221.854 308.25 225.812C304.833 229.729 300.375 232.417 294.875 233.875V241.375H273.75Z" fill="black"/>
</g>
<defs>
<clipPath id="clip0_9_14">
<rect width="500" height="500" fill="white"/>
</clipPath>
</defs>
</svg>
