<svg width="500" height="500" viewBox="0 0 500 500" fill="none" xmlns="http://www.w3.org/2000/svg">
<g clip-path="url(#clip0_2_3)">
<rect width="500" height="500" />
<path d="M250.5 48L489.09 445.5H11.91L250.5 48Z" stroke="black" stroke-width="4.17" stroke-linejoin="round" fill="white"/>
<path d="M230.75 322V308C244.458 300.417 254.688 292.5 261.438 284.25C268.229 276 271.625 267.5 271.625 258.75C271.625 253.667 270.375 249.854 267.875 247.312C265.375 244.771 261.583 243.5 256.5 243.5C253.125 243.5 249.604 244.479 245.938 246.438C242.271 248.396 239.125 251 236.5 254.25L227.875 245.688C230.75 241.562 234.833 238.25 240.125 235.75C245.417 233.25 250.958 232 256.75 232C266.125 232 273.125 234.229 277.75 238.688C282.417 243.104 284.75 249.792 284.75 258.75C284.75 267.75 281.896 276.396 276.188 284.688C270.521 292.938 261.875 300.875 250.25 308.5V322H230.75ZM234.5 322V310.375H288.5V322H234.5Z" fill="black"/>
</g>
<defs>
<clipPath id="clip0_2_3">
<rect width="500" height="500" />
</clipPath>
</defs>
</svg>
