<svg width="500" height="500" viewBox="0 0 500 500" fill="none" xmlns="http://www.w3.org/2000/svg">
<g clip-path="url(#clip0_2_86)">
<rect width="500" height="500" />
<path d="M250 33L487.764 199.181L396.946 468.069L103.054 468.069L12.2359 199.181L250 33Z" stroke="black" stroke-width="4.17" stroke-linejoin="round" fill="white"/>
<path d="M239.312 282.688L228.375 270.125V264.625C228.375 248.458 232.667 236.167 241.25 227.75C249.875 219.333 263 214.708 280.625 213.875L281.875 225.75C255.458 226.875 242.25 238.75 242.25 261.375L239.312 282.688ZM259.625 304.25C249.625 304.25 241.917 301.292 236.5 295.375C231.083 289.417 228.375 281 228.375 270.125L238.75 277.5V261.25H243.375C244.625 256.625 247.104 253.062 250.812 250.562C254.562 248.021 259.125 246.75 264.5 246.75C272.25 246.75 278.229 249.146 282.438 253.938C286.646 258.729 288.75 265.5 288.75 274.25C288.75 283.75 286.229 291.125 281.188 296.375C276.146 301.625 268.958 304.25 259.625 304.25ZM259.75 292.75C264.625 292.75 268.375 291.146 271 287.938C273.667 284.688 275 280.125 275 274.25C275 269.125 273.604 265.188 270.812 262.438C268.062 259.646 264.083 258.25 258.875 258.25C253.542 258.25 249.417 259.75 246.5 262.75C243.583 265.75 242.125 270 242.125 275.5C242.125 281.25 243.604 285.562 246.562 288.438C249.521 291.312 253.917 292.75 259.75 292.75Z" fill="black"/>
</g>
<defs>
<clipPath id="clip0_2_86">
<rect width="500" height="500" />
</clipPath>
</defs>
</svg>
