<svg width="500" height="500" viewBox="0 0 500 500" fill="none" xmlns="http://www.w3.org/2000/svg">
<g clip-path="url(#clip0_9_11)">
<path d="M250.5 468L11.9101 70.4998L489.09 70.4998L250.5 468Z" fill="white" stroke="black" stroke-width="4.17" stroke-linejoin="round"/>
<path d="M207.75 282V193.25H221V282H207.75ZM185.625 282V270.375H209V282H185.625ZM219.75 282V270.375H240.75V282H219.75ZM186.875 213.375V200.75L207.75 193.25V206.125L186.875 213.375ZM260.75 282V268C274.458 260.417 284.688 252.5 291.438 244.25C298.229 236 301.625 227.5 301.625 218.75C301.625 213.667 300.375 209.854 297.875 207.312C295.375 204.771 291.583 203.5 286.5 203.5C283.125 203.5 279.604 204.479 275.938 206.438C272.271 208.396 269.125 211 266.5 214.25L257.875 205.688C260.75 201.562 264.833 198.25 270.125 195.75C275.417 193.25 280.958 192 286.75 192C296.125 192 303.125 194.229 307.75 198.688C312.417 203.104 314.75 209.792 314.75 218.75C314.75 227.75 311.896 236.396 306.188 244.688C300.521 252.938 291.875 260.875 280.25 268.5V282H260.75ZM264.5 282V270.375H318.5V282H264.5Z" fill="black"/>
</g>
<defs>
<clipPath id="clip0_9_11">
<rect width="500" height="500" fill="white"/>
</clipPath>
</defs>
</svg>
