<svg width="500" height="500" viewBox="0 0 500 500" fill="none" xmlns="http://www.w3.org/2000/svg">
<g clip-path="url(#clip0_2_83)">
<rect width="500" height="500" />
<path d="M250 33L487.764 199.181L396.946 468.069L103.054 468.069L12.2359 199.181L250 33Z" stroke="black" stroke-width="4.17" stroke-linejoin="round" fill="white"/>
<path d="M259.375 304.25C249.792 304.25 242.375 301.979 237.125 297.438C231.875 292.854 229.25 286.417 229.25 278.125H242.625C242.625 282.75 244.083 286.354 247 288.938C249.917 291.479 254.083 292.75 259.5 292.75C264.75 292.75 268.812 291.146 271.688 287.938C274.562 284.729 276 280.208 276 274.375C276 268.667 274.417 264.25 271.25 261.125C268.125 257.958 263.708 256.375 258 256.375C252.167 256.375 246.708 257.75 241.625 260.5L242.75 249.875C246.042 248 249.312 246.75 252.562 246.125C255.812 245.458 259.083 245.125 262.375 245.125C268.125 245.125 273 246.271 277 248.562C281.042 250.854 284.104 254.188 286.188 258.562C288.312 262.896 289.375 268.167 289.375 274.375C289.375 280.708 288.188 286.104 285.812 290.562C283.479 295.021 280.083 298.417 275.625 300.75C271.167 303.083 265.75 304.25 259.375 304.25ZM234.625 260.5L235.875 214.25H249L246.875 252.75L241.625 260.5H234.625ZM241.875 225.875L240.75 214.25H283.75V225.875H241.875Z" fill="black"/>
</g>
<defs>
<clipPath id="clip0_2_83">
<rect width="500" height="500" />
</clipPath>
</defs>
</svg>
