<svg width="500" height="500" viewBox="0 0 500 500" fill="none" xmlns="http://www.w3.org/2000/svg">
<g clip-path="url(#clip0_2_98)">
<rect width="500" height="500" />
<path d="M250 33L487.764 199.181L396.946 468.069L103.054 468.069L12.2359 199.181L250 33Z" stroke="black" stroke-width="4.17" stroke-linejoin="round" fill="white"/>
<path d="M207.75 307V218.25H221V307H207.75ZM185.625 307V295.375H209V307H185.625ZM219.75 307V295.375H240.75V307H219.75ZM186.875 238.375V225.75L207.75 218.25V231.125L186.875 238.375ZM287.5 308.25C267.333 308.25 257.25 293.25 257.25 263.25C257.25 232.417 267.333 217 287.5 217C307.667 217 317.75 232.417 317.75 263.25C317.75 293.25 307.667 308.25 287.5 308.25ZM287.5 272.625C284.708 272.625 282.438 271.771 280.688 270.062C278.979 268.312 278.125 266.042 278.125 263.25C278.125 260.417 278.979 258.146 280.688 256.438C282.438 254.729 284.708 253.875 287.5 253.875C290.333 253.875 292.604 254.729 294.312 256.438C296.021 258.146 296.875 260.417 296.875 263.25C296.875 266.042 296.021 268.312 294.312 270.062C292.604 271.771 290.333 272.625 287.5 272.625ZM287.5 296.75C298.75 296.75 304.375 285.583 304.375 263.25C304.375 240.083 298.75 228.5 287.5 228.5C276.25 228.5 270.625 240.083 270.625 263.25C270.625 285.583 276.25 296.75 287.5 296.75Z" fill="black"/>
</g>
<defs>
<clipPath id="clip0_2_98">
<rect width="500" height="500" />
</clipPath>
</defs>
</svg>
